# xmcd
#
# Track frame offsets:
#	150
#	17471
#	35683
#
# Disc length: 700 seconds
#
# Revision: 0
# Processed by: cddbd v1.5.1PL2 Copyright (c) Steve Scherf et al.
# Submitted via: AudioConverter v5.0 Copyright (c) AC Productions Ltd
#
DISCID=1902ba03
DTITLE=Big Country - See You Perfect World
DYEAR=1999
DGENRE=Rock
TTITLE0=See You
TTITLE1=Perfect World
TTITLE2=This Blood's For You
EXTD=
EXTT0=
EXTT1=
EXTT2=
PLAYORDER=
